<svg version="1.1" id="logo_xxxx"
	xmlns="http://www.w3.org/2000/svg"
	xmlns:xlink="http://www.w3.org/1999/xlink" x="0px" y="0px" viewBox="0 0 326 104.5" style="enable-background:new 0 0 326 104.5;" xml:space="preserve">
	<path fill="#ECA629" d="M68.8,20.4c-4.9-3.4-11.3-5.6-17.7-7.3c-6.1-1.6-11.5-2.5-15.2-3.5c-1.9,3.7-2.7,6.9-0.7,9.4
	c2.3,2.8,7.9,4.4,18.3,7.4c7,2,13.5,4.5,18.3,8.1c3.4,2.5,5.6,6,5.9,9.5c0.2-1.3,0.3-2.6,0.3-4c0-4.1-0.8-8.1-2.2-11.7
	C74.2,25.4,71.9,22.6,68.8,20.4"/>
	<path fill="#D34727" d="M71.2,41.5c-3.8-3-8.9-5.3-14.5-7.2c-5.8-2-11.8-3.4-17.5-4.7c-5.4-1.2-10.2-2.3-14-3.4
	C22,35.8,23,42.9,27.5,47.5c2.3,2.3,5.6,4.1,10.1,5.8c4.4,1.6,9.7,3,15.4,5.3c3.4,1.4,6.2,3,7.8,4.9c1.2,1.6,1.5,3.6,0.6,5.1
	c7.4-4.2,12.9-11.2,15.2-19.6C75.8,46.3,73.9,43.6,71.2,41.5"/>
	<path fill="#B52832" d="M45.8,61.1c-2.3-0.5-10.8-2.7-14.2-4.5c-1.3,3.8,0.8,8.7,2.6,10.5c0.9,0.9,1.6,2.6,10.1,4.4
	c5.4,1.1,4.9,3.4,4.6,4.1c3.1-0.3,5.2-1.9,6.3-3.6C56.1,70.7,58.1,64.1,45.8,61.1"/>
	<path fill="#ECA629" d="M74.5,21.7c-0.8-2.6-2-5-3.5-7.2c-0.8-1.1-1.6-2.3-2.5-3.3c-0.9-1-1.8-2-2.8-2.9c-1-0.9-2-1.7-3-2.5
	c-1-0.8-2.1-1.5-3.1-2.1c-2.1-1.2-4.2-2.2-6.4-2.9c-1.6-0.5-4.5-1.2-6.5-0.5C44.6,1,45,2.8,47.3,3.6l0.2,0.1c3.2,1,6.5,2.2,9.6,3.8
	c1.5,0.7,3,1.6,4.5,2.5c1.4,0.9,2.8,1.8,4,2.7c1.2,0.9,2.4,1.9,3.5,2.9c1,0.9,2,1.9,2.8,2.8c1.1,1.2,2,2.5,2.5,3.6L74.5,21.7z"/>
	<path class="logo_xxxx_color" d="M125.3,21l-6.4,36.4c-0.1,0.6-0.7,1-1.2,1h-6.8c-0.5,0-0.8-0.4-0.8-0.8v-0.2l2.6-14.9H99.9l-2.6,14.9
	c-0.1,0.6-0.7,1-1.2,1h-6.8c-0.5,0-0.8-0.4-0.8-0.8v-0.2L94.9,21c0.1-0.6,0.6-1,1.2-1h6.8c0.5,0,0.9,0.3,0.9,0.8V21l-2.4,13.8h12.8
	l2.4-13.8c0.1-0.6,0.6-1,1.2-1h6.8c0.5,0,0.9,0.3,0.9,0.8V21z"/>
	<path class="logo_xxxx_color" d="M141.6,35.6c-3,0-4.9,1.8-5.7,6.3l-0.7,3.6c-0.2,0.9-0.3,1.8-0.3,2.5c0,2.7,1.2,3.9,3.8,3.9
	c3.4,0,4.9-2.2,5.7-6.4l0.7-3.6c0.2-0.9,0.3-1.7,0.3-2.4C145.4,36.8,144.1,35.6,141.6,35.6 M153.5,41.9l-0.7,3.6
	c-1.7,8.8-6.1,13.4-15.3,13.4c-7,0-10.9-4.4-10.9-10.5c0-0.9,0.1-1.9,0.3-2.9l0.7-3.6c1.8-9.4,6.7-13.4,15.3-13.4
	c7,0,10.9,4.1,10.9,10.4C153.8,39.9,153.6,41.3,153.5,41.9"/>
	<path class="logo_xxxx_color" d="M175.5,29.4l-0.9,5c-0.1,0.6-0.6,1-1.6,1c-1.5,0-3.6,0.1-4.7,0.3l-3.8,21.7c-0.1,0.6-0.7,1.1-1.2,1.1H157
	c-0.5,0-0.9-0.4-0.9-0.9v-0.2l4.5-25.8c0.1-0.7,0.6-1.2,1.9-1.7c3.5-1.1,6.8-1.5,11.7-1.5c0.6,0,1.2,0.2,1.2,0.8V29.4z"/>
	<path class="logo_xxxx_color" d="M188.3,29.9l-4.9,27.6c-0.1,0.6-0.7,1-1.2,1h-6.3c-0.5,0-0.8-0.4-0.8-0.8v-0.2l4.9-27.6c0.1-0.6,0.6-1,1.2-1
	h6.3c0.5,0,0.9,0.4,0.9,0.9V29.9z M190.3,19.6l-0.8,4.8c-0.1,0.6-0.7,1-1.2,1h-6.7c-0.5,0-0.8-0.4-0.8-0.8v-0.2l0.8-4.8
	c0.1-0.6,0.7-1,1.2-1h6.7c0.5,0,0.8,0.4,0.8,0.8V19.6z"/>
	<path class="logo_xxxx_color" d="M215.8,30.3v0.3l-0.7,3.8c-0.1,0.5-0.3,1.1-0.9,1.8l-12.9,14.6l-0.2,0.4l0.3,0.2h9.8c0.5,0,0.8,0.3,0.8,0.7v0.2
	l-0.9,5.2c-0.1,0.6-0.7,1-1.2,1h-19.4c-0.8,0-1.5-0.6-1.5-1.4v-0.3l0.6-3.3c0.1-0.7,0.5-1.2,1.1-2l13.5-15.3l0.2-0.4l-0.3-0.2h-10
	c-0.5,0-0.7-0.3-0.7-0.7v-0.2l0.9-4.9c0.1-0.6,0.6-1,1.2-1h18.9C215.2,28.8,215.9,29.5,215.8,30.3L215.8,30.3z"/>
	<path class="logo_xxxx_color" d="M232.5,35.6c-3,0-4.9,1.8-5.7,6.3l-0.7,3.6c-0.2,0.9-0.3,1.8-0.3,2.5c0,2.7,1.2,3.9,3.8,3.9
	c3.4,0,4.9-2.2,5.7-6.4l0.7-3.6c0.2-0.9,0.3-1.7,0.3-2.4C236.3,36.8,235,35.6,232.5,35.6 M244.3,41.9l-0.7,3.6
	c-1.7,8.8-6.2,13.4-15.3,13.4c-7,0-10.9-4.4-10.9-10.5c0-0.9,0.1-1.9,0.3-2.9l0.7-3.6c1.8-9.4,6.7-13.4,15.3-13.4
	c7,0,10.9,4.1,10.9,10.4C244.7,39.9,244.5,41.3,244.3,41.9"/>
	<path class="logo_xxxx_color" d="M275.3,39.8l-3.1,17.6c-0.1,0.6-0.6,1.1-1.2,1.1h-6.4c-0.5,0-0.9-0.4-0.9-0.9l0.1-0.2l3.2-18.2
	c0.1-0.6,0.2-1.1,0.2-1.7c0-1.3-0.6-2.2-2.5-2.2h-2.6c-2.7,0-3.3,1.3-3.7,3.9l-3.2,18.2c-0.1,0.6-0.7,1.1-1.2,1.1h-6.4
	c-0.5,0-0.8-0.4-0.8-0.9l0-0.2l3.3-18.8c1.2-7.1,5.7-10.1,13.2-10.1h2.6c6.4,0,9.7,3.2,9.7,8.5C275.6,37.8,275.5,38.8,275.3,39.8"/>
	<path class="logo_xxxx_color" d="M302.7,30.8L302,35c-0.1,0.6-0.5,1-1,1h-0.2c-1.4-0.2-5.8-0.7-8.5-0.7h-0.2c-1.3,0-2.8,0.1-2.8,1.8
	c0,0.6,0.4,1.1,1.2,1.6l5.7,3.7c3.2,2.1,4.1,4.4,4.1,6.4c0,7.5-6.1,10.1-12.8,10.1c-2.8,0-6.7-0.4-9.2-1.1c-0.5-0.2-0.8-0.5-0.8-0.9
	v-0.3l0.8-4.2c0.1-0.6,0.6-1,1.2-1h0.2c2.7,0.4,6.4,0.7,8.7,0.7c1.8,0,3.4-0.2,3.4-2.3c0-0.7-0.4-1.3-1.6-2.1l-6-3.9
	c-2.3-1.5-3.4-3.9-3.4-6.1c0-7.2,5.9-9.3,12.1-9.3c3.6,0,6.5,0.5,9,1.2c0.5,0.2,0.8,0.5,0.8,0.9V30.8z"/>
	<path fill="#E85E3D" d="M247.6,68.4c-0.3,0-0.7,0-0.9,0.1l-0.6,3.7c0.3,0,0.5,0.1,0.9,0.1c0.8,0,1-0.5,1.2-1.4l0.2-1
	c0-0.2,0.1-0.4,0.1-0.6C248.4,68.6,248.2,68.4,247.6,68.4 M250.9,69.7l-0.2,1c-0.4,2.4-1.7,3.5-4.1,3.5c-1.2,0-2.3-0.2-2.9-0.3
	c-0.2-0.1-0.4-0.1-0.4-0.3c0,0,0-0.1,0-0.1l1.7-9.5c0-0.1,0.2-0.3,0.3-0.3h2c0.1,0,0.2,0.1,0.2,0.2v0l-0.4,2.3
	c0.4-0.1,0.6-0.1,1-0.1c2,0,2.9,1.2,2.9,2.8C251,69.2,251,69.5,250.9,69.7"/>
	<path fill="#E85E3D" d="M259.9,66.7l-0.8,4.5c-0.4,2.1-1.8,3.1-4,3.1h-0.1c-1.9,0-3-1.1-3-2.7c0-0.2,0-0.5,0.1-0.8l0.7-4.1
	c0-0.1,0.2-0.3,0.3-0.3h2c0.1,0,0.2,0.1,0.2,0.2v0.1l-0.8,4.3c0,0.2-0.1,0.3-0.1,0.5c0,0.5,0.2,0.7,0.7,0.7h0.1c0.6,0,1-0.3,1.1-1.2
	l0.8-4.3c0-0.1,0.2-0.3,0.3-0.3h2C259.8,66.4,259.9,66.5,259.9,66.7L259.9,66.7z"/>
	<path fill="#E85E3D" d="M267,66.9l-0.3,1.4c0,0.1-0.1,0.3-0.3,0.3h0c-0.4-0.1-1.7-0.2-2.3-0.2c-0.2,0-0.5,0-0.5,0.3
	c0,0.1,0.1,0.2,0.2,0.3l1.4,0.8c0.8,0.5,1.1,1.1,1.1,1.7c0,2.1-1.6,2.8-3.5,2.8c-1,0-1.9-0.1-2.5-0.3c-0.1,0-0.2-0.1-0.2-0.2v-0.1
	l0.2-1.4c0-0.2,0.1-0.3,0.3-0.3h0.1c0.8,0.1,1.8,0.2,2.3,0.2c0.3,0,0.7-0.1,0.7-0.5c0-0.1-0.1-0.2-0.3-0.4l-1.5-0.9
	c-0.6-0.3-0.9-1.1-0.9-1.8c0-2,1.6-2.5,3.3-2.5c1,0,1.8,0.2,2.4,0.3C266.9,66.6,267,66.7,267,66.9L267,66.9z"/>
	<path fill="#E85E3D" d="M271.9,64l-0.2,1.3c0,0.1-0.2,0.3-0.3,0.3h-2.1c-0.1,0-0.3-0.1-0.3-0.2v0l0.2-1.3c0-0.1,0.2-0.3,0.4-0.3h2.1
	C271.8,63.8,271.9,63.9,271.9,64L271.9,64z M271.4,66.6l-1.3,7.2c0,0.1-0.2,0.3-0.3,0.3h-2c-0.1,0-0.2-0.1-0.2-0.3v0l1.3-7.2
	c0-0.1,0.2-0.3,0.3-0.3h2C271.3,66.4,271.4,66.5,271.4,66.6L271.4,66.6z"/>
	<path fill="#E85E3D" d="M279.7,69.4l-0.8,4.5c0,0.1-0.2,0.3-0.3,0.3h-2c-0.1,0-0.2-0.1-0.2-0.2v-0.1l0.8-4.7c0-0.1,0.1-0.3,0.1-0.4
	c0-0.3-0.1-0.5-0.6-0.5h-0.5c-0.6,0-0.7,0.4-0.8,0.9l-0.8,4.7c0,0.1-0.2,0.3-0.3,0.3h-2c-0.1,0-0.2-0.1-0.2-0.2v-0.1l0.8-4.7
	c0.4-2.3,1.6-3,3.7-3h0.5c1.9,0,2.9,0.8,2.9,2.4C279.7,68.9,279.7,69.1,279.7,69.4"/>
	<path fill="#E85E3D" d="M284.9,68.2c-0.8,0-1.1,0.6-1.2,1.3h2c0-0.2,0.1-0.4,0.1-0.5C285.7,68.6,285.5,68.2,284.9,68.2 M288,69.9
	l-0.1,0.8c0,0.2-0.2,0.3-0.3,0.3h-4.2c0,0.2,0,0.3,0,0.4c0,0.7,0.4,0.8,1.1,0.8c0.7,0,2.1-0.1,2.6-0.1h0.1c0.1,0,0.2,0.1,0.2,0.2
	v0.1l-0.2,1.2c0,0.2-0.1,0.3-0.3,0.4c-0.9,0.3-1.8,0.4-2.9,0.4c-1.5,0-3-0.9-3-2.8c0-0.2,0-0.4,0.1-0.7l0.1-0.9
	c0.4-2.7,2-3.6,4.2-3.6c1.9,0,2.9,1.3,2.9,2.9C288.1,69.4,288.1,69.6,288,69.9"/>
	<path fill="#E85E3D" d="M295.5,66.9l-0.3,1.4c0,0.1-0.1,0.3-0.3,0.3h0c-0.4-0.1-1.7-0.2-2.3-0.2c-0.2,0-0.5,0-0.5,0.3
	c0,0.1,0.1,0.2,0.2,0.3l1.4,0.8c0.8,0.5,1.1,1.1,1.1,1.7c0,2.1-1.6,2.8-3.5,2.8c-1,0-1.9-0.1-2.5-0.3c-0.1,0-0.2-0.1-0.2-0.2v-0.1
	l0.2-1.4c0-0.2,0.1-0.3,0.3-0.3h0.1c0.8,0.1,1.8,0.2,2.3,0.2c0.3,0,0.7-0.1,0.7-0.5c0-0.1-0.1-0.2-0.3-0.4l-1.5-0.9
	c-0.6-0.3-0.9-1.1-0.9-1.8c0-2,1.6-2.5,3.3-2.5c1,0,1.8,0.2,2.4,0.3C295.5,66.6,295.5,66.7,295.5,66.9L295.5,66.9z"/>
	<path fill="#E85E3D" d="M302.7,66.9l-0.3,1.4c0,0.1-0.1,0.3-0.3,0.3h0c-0.4-0.1-1.7-0.2-2.3-0.2c-0.2,0-0.5,0-0.5,0.3
	c0,0.1,0.1,0.2,0.2,0.3l1.4,0.8c0.8,0.5,1.1,1.1,1.1,1.7c0,2.1-1.6,2.8-3.5,2.8c-1,0-1.9-0.1-2.5-0.3c-0.1,0-0.2-0.1-0.2-0.2v-0.1
	l0.2-1.4c0-0.2,0.1-0.3,0.3-0.3h0.1c0.8,0.1,1.8,0.2,2.3,0.2c0.3,0,0.7-0.1,0.7-0.5c0-0.1-0.1-0.2-0.3-0.4l-1.5-0.9
	c-0.6-0.3-0.9-1.1-0.9-1.8c0-2,1.6-2.5,3.3-2.5c1,0,1.8,0.2,2.4,0.3C302.6,66.6,302.7,66.7,302.7,66.9L302.7,66.9z"/>
	<text transform="matrix(1 0 0 1 22.7329 98.2889)" class="logo_xxxx_color" style="font-family:'Montserrat';font-size:15.3809px;letter-spacing:4;">CONNECTING TOMORROW</text>
</svg>
