<svg id="Layer_1" data-name="Layer 1"
    xmlns="http://www.w3.org/2000/svg" viewBox="0 0 54.67 75.6">
    <defs>
        <style>.cls-1{fill:#eca629;}.cls-2{fill:#d34727;}.cls-3{fill:#b52832;}</style>
    </defs>
    <title>xxxx</title>
    <path class="cls-1" d="M45.47,20.4c-4.9-3.4-11.3-5.6-17.7-7.3-6.1-1.6-11.5-2.5-15.2-3.5-1.9,3.7-2.7,6.9-.7,9.4,2.3,2.8,7.9,4.4,18.3,7.4,7,2,13.5,4.5,18.3,8.1,3.4,2.5,5.6,6,5.9,9.5a26,26,0,0,0,.3-4,32.44,32.44,0,0,0-2.2-11.7,23.67,23.67,0,0,0-7-7.9"/>
    <path class="cls-2" d="M47.87,41.5c-3.8-3-8.9-5.3-14.5-7.2a168.45,168.45,0,0,0-17.5-4.7c-5.4-1.2-10.2-2.3-14-3.4-3.2,9.6-2.2,16.7,2.3,21.3,2.3,2.3,5.6,4.1,10.1,5.8s9.7,3,15.4,5.3c3.4,1.4,6.2,3,7.8,4.9a4.62,4.62,0,0,1,.6,5.1A32.29,32.29,0,0,0,53.27,49a15.36,15.36,0,0,0-5.4-7.5"/>
    <path class="cls-3" d="M22.47,61.1c-2.3-.5-10.8-2.7-14.2-4.5-1.3,3.8.8,8.7,2.6,10.5.9.9,1.6,2.6,10.1,4.4,5.4,1.1,4.9,3.4,4.6,4.1a8.28,8.28,0,0,0,6.3-3.6c.9-1.3,2.9-7.9-9.4-10.9"/>
    <path class="cls-1" d="M51.17,21.7a26.71,26.71,0,0,0-3.5-7.2,40.81,40.81,0,0,0-2.5-3.3,38.33,38.33,0,0,0-2.8-2.9c-1-.9-2-1.7-3-2.5a28.24,28.24,0,0,0-3.1-2.1A33.22,33.22,0,0,0,29.87.8c-1.6-.5-4.5-1.2-6.5-.5s-1.7,2.5.6,3.3l.2.1a59.86,59.86,0,0,1,9.6,3.8,50.55,50.55,0,0,1,4.5,2.5c1.4.9,2.8,1.8,4,2.7s2.4,1.9,3.5,2.9a37,37,0,0,1,2.8,2.8,14.7,14.7,0,0,1,2.5,3.6Z"/>
</svg>