<?xml version="1.0" standalone="no"?>
<!DOCTYPE svg PUBLIC "-//W3C//DTD SVG 20010904//EN"
 "http://www.w3.org/TR/2001/REC-SVG-20010904/DTD/svg10.dtd">
<svg version="1.0" xmlns="http://www.w3.org/2000/svg"
 width="1216.000000pt" height="1216.000000pt" viewBox="0 0 1216.000000 1216.000000"
 preserveAspectRatio="xMidYMid meet">
<metadata>
Created by potrace 1.11, written by Peter Selinger 2001-2013
</metadata>
<g transform="translate(0.000000,1216.000000) scale(0.100000,-0.100000)"
fill="#000000" stroke="none">
<path d="M5593 12137 c-3 -4 -12 -7 -21 -6 -10 1 -24 -1 -32 -4 -8 -4 -26 -8
-40 -11 -30 -5 -121 -38 -135 -49 -55 -41 -96 -84 -111 -115 -19 -39 -26 -107
-13 -132 3 -8 12 -27 19 -42 27 -57 99 -119 199 -169 67 -34 318 -122 349
-122 6 0 12 -3 12 -7 0 -3 22 -12 48 -18 26 -7 115 -38 197 -68 83 -30 157
-57 166 -59 9 -2 25 -8 35 -13 28 -15 196 -83 215 -87 9 -2 25 -8 35 -13 11
-5 30 -14 44 -20 124 -51 425 -189 458 -210 12 -8 22 -10 22 -6 0 5 4 5 8 -1
8 -11 160 -87 165 -83 2 2 10 -2 18 -8 8 -6 59 -35 114 -64 129 -69 418 -234
472 -271 23 -16 46 -29 51 -29 5 0 17 -9 27 -20 10 -11 21 -17 25 -15 5 3 10
2 12 -3 3 -7 155 -112 163 -112 8 0 367 -249 400 -277 6 -5 26 -20 45 -33 19
-14 41 -33 48 -42 7 -10 17 -18 23 -18 9 0 48 -31 91 -72 10 -10 18 -16 18
-13 0 5 41 -30 90 -75 8 -8 31 -27 50 -41 19 -15 49 -40 66 -55 16 -16 68 -63
115 -104 106 -94 383 -371 469 -469 36 -41 75 -84 88 -97 12 -13 22 -28 22
-33 0 -6 6 -14 13 -18 18 -12 77 -90 77 -102 0 -6 5 -11 10 -11 6 0 10 -7 10
-15 0 -8 4 -15 8 -15 5 0 15 -12 23 -27 8 -16 16 -30 19 -33 8 -7 53 -86 89
-154 25 -48 31 -54 39 -40 9 17 -5 88 -28 139 -5 11 -16 42 -25 69 -60 184
-229 541 -354 748 -74 122 -117 188 -123 188 -5 0 -8 5 -8 10 0 11 -33 60 -62
94 -10 11 -20 28 -24 38 -3 10 -9 18 -12 18 -4 0 -16 16 -26 35 -11 19 -23 35
-28 35 -4 0 -8 7 -8 15 0 8 -4 15 -9 15 -4 0 -20 17 -33 38 -22 32 -184 237
-212 268 -6 7 -38 43 -71 80 -78 89 -387 399 -443 444 -24 19 -56 46 -70 60
-15 14 -47 41 -71 60 -25 19 -55 45 -68 58 -13 12 -28 22 -33 22 -4 0 -10 4
-12 8 -4 9 -186 156 -238 192 -19 13 -41 30 -47 36 -7 7 -29 23 -50 35 -21 13
-45 29 -53 36 -8 7 -60 42 -115 77 -55 36 -106 70 -112 76 -7 6 -13 8 -13 4 0
-3 -6 -2 -12 4 -7 5 -29 19 -49 30 -74 41 -84 47 -89 53 -3 3 -93 49 -200 102
-182 89 -319 151 -465 207 -33 13 -73 28 -90 35 -16 7 -61 22 -100 35 -38 12
-87 29 -107 36 -61 22 -310 78 -398 90 -25 3 -72 9 -105 14 -75 10 -345 8
-352 -3z"/>
<path d="M3667 10518 c-44 -92 -69 -144 -102 -223 -19 -44 -76 -204 -79 -220
-1 -5 -4 -14 -8 -20 -9 -16 -48 -188 -55 -251 -9 -69 -9 -275 -1 -319 3 -16
12 -50 19 -75 16 -57 14 -52 23 -72 4 -9 9 -22 10 -30 13 -75 170 -279 282
-366 72 -56 150 -112 174 -124 14 -7 27 -15 30 -18 12 -12 323 -170 335 -170
2 0 29 -11 59 -25 30 -14 58 -25 61 -25 3 0 25 -8 48 -19 23 -10 76 -31 117
-45 41 -15 82 -30 90 -33 8 -4 17 -7 20 -8 3 -1 18 -7 33 -13 16 -7 33 -12 38
-12 5 0 17 -4 27 -9 9 -6 62 -24 117 -41 55 -17 109 -36 120 -41 11 -5 29 -11
40 -12 11 -2 29 -7 40 -11 11 -5 31 -12 45 -16 25 -9 199 -62 213 -66 4 -1 9
-3 12 -4 3 -1 10 -4 15 -5 6 -1 12 -4 15 -5 3 -1 8 -3 13 -4 27 -8 106 -31
157 -46 141 -44 236 -72 247 -74 28 -5 104 -28 118 -36 9 -4 35 -11 58 -15 23
-4 42 -11 42 -16 0 -6 4 -8 9 -5 5 3 27 -1 50 -9 23 -8 42 -14 44 -13 2 1 110
-30 137 -40 8 -3 20 -6 26 -7 17 -4 335 -96 379 -110 70 -22 154 -47 167 -49
25 -4 283 -88 300 -97 10 -5 26 -9 36 -9 10 0 22 -4 27 -8 6 -5 30 -15 55 -22
56 -17 50 -15 85 -25 17 -4 36 -12 43 -18 6 -5 12 -6 12 -1 0 4 5 3 12 -4 7
-7 18 -12 26 -12 8 0 28 -6 45 -14 18 -7 73 -28 122 -45 127 -46 294 -110 332
-127 18 -8 50 -21 70 -28 21 -8 64 -25 95 -40 31 -14 59 -26 62 -26 3 0 44
-18 91 -40 47 -22 88 -40 91 -40 7 0 392 -192 459 -229 33 -19 78 -44 100 -56
92 -51 250 -149 253 -157 2 -4 8 -8 14 -8 5 0 46 -25 90 -55 44 -30 82 -55 84
-55 3 0 17 -11 32 -25 15 -14 30 -25 34 -25 5 0 16 -7 26 -15 9 -9 64 -53 122
-98 137 -106 323 -293 433 -434 48 -61 87 -116 87 -121 0 -6 4 -12 8 -14 12
-4 124 -195 147 -248 10 -25 25 -52 32 -61 7 -8 13 -20 13 -26 0 -6 8 -28 17
-49 9 -22 17 -41 18 -44 1 -3 4 -12 8 -20 12 -33 48 -148 52 -171 3 -13 8 -37
12 -54 4 -16 7 -32 8 -35 5 -20 17 -91 20 -119 5 -41 15 -53 16 -20 1 13 2 35
4 49 1 14 5 52 8 85 3 33 7 60 7 60 14 0 20 612 7 765 -17 210 -29 312 -49
425 -5 33 -12 74 -13 90 -2 17 -6 41 -9 55 -3 14 -15 72 -26 129 -12 57 -28
129 -36 160 -8 31 -17 66 -20 78 -2 12 -20 76 -39 143 -30 103 -45 151 -70
228 -3 7 -5 14 -5 17 -1 2 -10 28 -21 57 -11 29 -22 58 -23 63 -15 53 -48 116
-135 255 -58 95 -206 308 -221 320 -3 3 -17 21 -30 40 -13 19 -31 42 -40 50
-8 8 -39 44 -69 80 -30 36 -121 130 -202 210 -157 154 -164 160 -249 230 -30
25 -57 47 -60 50 -3 3 -39 30 -80 60 -41 30 -77 57 -80 60 -6 6 -60 43 -75 50
-5 3 -43 26 -83 53 -40 26 -77 47 -82 47 -6 0 -10 5 -10 10 0 6 -4 10 -9 10
-5 0 -39 18 -75 40 -36 22 -70 40 -75 40 -5 0 -11 3 -13 8 -3 8 -24 19 -229
123 -74 38 -141 69 -147 69 -7 0 -12 5 -12 10 0 6 -6 10 -14 10 -8 0 -27 7
-43 15 -134 71 -676 289 -687 277 -3 -3 -6 0 -6 6 0 7 -3 11 -7 10 -5 0 -15 1
-23 5 -8 3 -58 20 -110 37 -52 18 -104 36 -115 40 -20 9 -65 23 -75 25 -3 0
-18 5 -35 12 -16 6 -64 21 -105 33 -41 12 -84 26 -95 30 -24 10 -92 31 -108
34 -7 1 -17 5 -23 8 -6 4 -21 9 -35 12 -13 2 -87 23 -164 45 -77 23 -149 43
-160 46 -11 2 -20 4 -20 5 0 1 -7 3 -15 5 -8 2 -58 16 -110 30 -52 15 -104 28
-115 30 -11 2 -35 8 -52 14 -18 5 -33 7 -33 4 0 -3 -7 0 -15 7 -8 7 -15 10
-15 7 0 -4 -18 0 -40 8 -22 8 -42 14 -45 15 -3 0 -6 0 -7 1 -2 0 -12 2 -23 4
-11 2 -38 8 -60 14 -35 9 -87 21 -150 35 -57 12 -122 28 -135 33 -8 3 -26 7
-40 9 -14 2 -36 6 -50 10 -37 11 -60 16 -130 30 -14 3 -72 16 -130 30 -58 14
-114 27 -125 28 -11 2 -20 4 -20 6 0 1 -11 3 -25 4 -21 3 -119 23 -202 42 -34
8 -108 23 -183 38 -11 3 -41 9 -68 15 -26 6 -64 14 -85 17 -20 3 -41 9 -46 12
-6 3 -19 6 -30 7 -12 1 -61 11 -110 23 -50 11 -94 18 -98 16 -4 -3 -8 0 -8 6
0 6 -6 10 -12 9 -11 -2 -38 3 -100 17 -5 1 -9 2 -10 4 -2 1 -10 3 -18 5 -21 4
-58 13 -105 24 -89 22 -131 32 -160 37 -16 3 -38 10 -47 15 -9 5 -19 9 -21 9
-3 0 -25 -42 -50 -92z"/>
<path d="M1948 7808 c-23 -73 -43 -135 -43 -138 -1 -3 -5 -23 -10 -45 -4 -22
-12 -48 -17 -58 -5 -10 -16 -48 -24 -85 -9 -37 -20 -85 -25 -107 -5 -22 -12
-49 -14 -60 -3 -11 -11 -50 -19 -86 -8 -36 -17 -78 -20 -93 -11 -59 -26 -143
-31 -176 -3 -19 -7 -46 -10 -60 -8 -48 -20 -153 -32 -285 -16 -179 -8 -624 13
-719 3 -12 7 -41 9 -66 2 -25 7 -56 10 -70 3 -14 8 -36 11 -50 2 -14 7 -36 10
-50 3 -14 8 -36 11 -50 2 -14 15 -63 29 -110 32 -111 28 -98 51 -157 3 -10 5
-22 4 -27 -1 -5 2 -12 6 -15 4 -3 14 -24 22 -46 18 -54 138 -295 156 -315 8
-9 15 -20 15 -23 0 -7 70 -118 81 -127 3 -3 18 -23 35 -45 16 -22 34 -45 39
-51 6 -6 21 -26 35 -44 34 -45 202 -214 269 -270 30 -25 59 -50 65 -55 6 -6
27 -22 46 -35 38 -27 65 -48 85 -67 8 -7 17 -13 21 -13 3 0 29 -16 55 -35 27
-19 51 -35 54 -35 3 0 11 -5 18 -10 20 -17 79 -54 127 -80 25 -14 47 -28 50
-31 3 -3 20 -12 38 -20 17 -8 32 -17 32 -21 0 -5 9 -8 19 -8 11 0 21 -3 23 -7
3 -8 213 -117 227 -119 5 0 170 -77 226 -105 12 -6 28 -11 37 -13 9 -1 23 -8
32 -15 9 -7 16 -10 16 -6 0 4 6 3 13 -2 6 -5 62 -29 122 -53 61 -23 124 -48
142 -56 17 -8 33 -14 36 -14 3 0 18 -5 34 -12 15 -6 35 -12 43 -14 8 -2 23 -7
35 -13 11 -5 74 -28 140 -51 66 -22 139 -48 162 -56 23 -8 54 -17 69 -20 16
-3 31 -10 35 -15 3 -6 10 -10 15 -10 5 1 34 -7 64 -16 30 -9 60 -17 65 -19 6
-1 64 -20 130 -42 165 -55 347 -113 365 -117 8 -2 16 -4 18 -5 1 -2 5 -3 10
-4 4 -1 13 -5 20 -9 6 -5 12 -6 12 -3 0 3 16 -2 35 -10 19 -8 38 -15 42 -15 5
-1 13 -3 18 -5 6 -2 44 -15 85 -29 41 -14 83 -27 93 -30 20 -4 366 -121 401
-135 31 -12 60 -23 71 -26 21 -5 211 -75 230 -84 11 -5 81 -32 155 -61 74 -28
155 -60 179 -72 24 -11 50 -20 58 -20 7 0 13 -4 13 -8 0 -4 10 -11 23 -15 33
-10 101 -40 210 -94 53 -27 97 -46 97 -43 0 3 8 -1 18 -9 9 -8 31 -22 47 -30
233 -113 525 -323 681 -489 82 -87 160 -210 181 -284 42 -150 44 -162 40 -270
-3 -60 -8 -123 -11 -140 -8 -36 -45 -143 -58 -168 -8 -16 26 4 222 127 36 22
67 44 68 48 2 5 8 8 13 8 10 0 47 25 100 65 14 11 36 27 49 35 46 31 115 84
118 92 2 4 8 8 13 8 5 0 17 7 26 15 18 16 78 64 151 123 167 135 415 379 587
577 28 31 55 62 60 69 30 34 196 248 226 291 19 28 36 52 39 55 16 16 110 161
110 170 0 5 4 10 8 10 5 0 15 12 23 28 8 15 16 29 19 32 14 13 150 254 150
266 0 7 4 14 8 16 11 4 92 160 92 176 0 7 5 12 10 12 6 0 9 3 8 8 -1 4 11 34
27 67 16 33 29 62 30 65 0 3 8 19 16 35 9 17 26 57 39 90 13 33 27 65 31 71 5
6 10 19 12 30 2 10 10 35 19 54 8 19 23 58 32 85 10 28 21 57 24 65 3 8 6 17
7 20 1 3 14 43 29 90 61 187 73 242 58 273 -7 15 -14 36 -15 47 -1 11 -5 20
-9 20 -4 0 -8 5 -8 12 0 37 -173 379 -220 435 -5 7 -10 15 -10 19 0 7 -116
170 -140 195 -8 10 -28 34 -45 55 -33 42 -221 232 -275 279 -19 17 -68 55
-107 85 -40 30 -73 58 -73 62 0 5 -6 8 -13 8 -7 0 -23 10 -37 23 -14 12 -45
35 -70 52 -25 16 -47 32 -50 36 -9 10 -271 178 -325 209 -16 9 -82 46 -145 82
-214 122 -729 368 -752 361 -5 -2 -8 2 -8 7 0 6 -5 10 -10 10 -6 0 -29 9 -53
19 -23 10 -125 51 -227 91 -253 98 -244 95 -345 130 -49 18 -112 40 -140 51
-27 10 -88 30 -135 45 -47 14 -92 29 -100 32 -8 3 -18 6 -22 7 -5 2 -10 4 -13
5 -3 1 -8 3 -12 4 -26 6 -131 40 -148 47 -11 5 -60 20 -110 35 -49 14 -119 35
-155 46 -36 11 -78 23 -95 28 -16 5 -77 22 -135 40 -106 31 -202 59 -230 65
-8 2 -27 8 -42 14 -16 6 -28 8 -28 5 0 -2 -13 2 -30 11 -16 9 -30 14 -30 11 0
-2 -39 7 -87 20 -49 14 -95 27 -103 29 -8 2 -42 11 -75 20 -33 9 -87 23 -120
31 -75 18 -90 22 -90 24 0 1 -9 3 -20 5 -31 6 -107 26 -135 36 -14 5 -36 10
-50 13 -22 4 -81 18 -135 32 -21 5 -46 11 -80 18 -11 2 -56 13 -100 25 -44 11
-94 22 -112 26 -18 3 -43 9 -57 15 -15 5 -26 8 -26 5 0 -2 -15 1 -32 6 -18 5
-46 12 -63 15 -16 3 -47 9 -68 15 -21 6 -52 12 -68 14 -16 2 -44 8 -62 14 -17
5 -68 17 -112 25 -85 17 -97 20 -160 35 -22 6 -55 13 -74 16 -19 3 -37 8 -41
10 -7 4 -43 12 -95 21 -16 3 -55 12 -85 19 -30 8 -67 16 -83 19 -15 3 -35 7
-45 10 -9 3 -60 15 -112 27 -52 11 -113 25 -135 30 -22 5 -51 11 -65 14 -21 4
-58 13 -80 20 -3 1 -32 7 -65 15 -33 8 -62 14 -65 15 -22 6 -121 26 -125 26
-2 0 -34 9 -70 19 -36 10 -67 19 -70 20 -3 0 -10 2 -17 5 -7 2 -26 6 -43 9
-16 2 -57 12 -90 20 -33 9 -69 18 -80 20 -11 3 -35 9 -52 15 -18 5 -33 8 -33
5 0 -3 -8 0 -17 5 -10 5 -31 11 -48 14 -31 6 -317 82 -440 118 -38 11 -78 22
-87 25 -14 4 -24 -18 -60 -128z"/>
<path d="M3010 3024 c-6 -14 -13 -39 -16 -57 -8 -44 -12 -62 -14 -62 -2 0 -7
-31 -15 -100 -13 -107 -8 -337 10 -420 1 -5 5 -32 9 -60 4 -27 10 -57 13 -65
4 -8 8 -25 9 -38 3 -26 60 -216 74 -247 5 -11 25 -60 44 -109 20 -49 41 -93
48 -98 7 -4 10 -8 6 -8 -6 0 8 -30 73 -147 12 -24 26 -43 31 -43 4 0 8 -6 8
-13 0 -7 8 -22 18 -33 9 -10 25 -31 34 -45 35 -55 278 -309 296 -309 6 0 12
-4 14 -8 4 -12 95 -72 107 -72 6 0 11 -4 11 -10 0 -5 4 -10 9 -10 4 0 40 -18
80 -39 39 -22 71 -38 71 -36 0 2 27 -10 60 -26 33 -16 67 -29 75 -29 9 0 23
-4 33 -10 15 -9 67 -31 82 -35 3 0 48 -15 100 -32 118 -39 342 -103 380 -109
8 -1 67 -16 130 -32 63 -17 131 -33 150 -36 19 -3 50 -10 68 -15 18 -5 35 -10
37 -10 3 0 15 -3 28 -6 12 -3 33 -7 47 -9 69 -14 220 -58 290 -85 79 -32 200
-94 200 -103 0 -4 7 -8 15 -8 8 0 44 -29 79 -65 60 -59 99 -119 113 -170 11
-45 10 -131 -2 -172 l-13 -44 44 5 c24 3 65 9 92 12 26 3 50 8 55 11 4 2 17 6
30 9 52 9 66 14 152 45 50 17 101 40 115 49 14 10 35 21 48 25 26 8 147 86
207 135 79 62 183 169 230 235 11 16 26 34 33 42 7 7 11 13 8 13 -3 0 6 16 19
36 24 35 29 50 61 159 26 92 35 251 20 358 -17 126 -77 273 -161 397 -46 69
-202 234 -271 288 -115 90 -364 233 -504 291 -85 34 -115 46 -173 70 -105 42
-364 119 -484 144 -29 6 -53 15 -53 20 0 4 -4 6 -8 3 -4 -3 -26 0 -48 5 -21 6
-55 12 -74 15 -19 3 -40 10 -47 16 -7 6 -13 8 -13 5 0 -3 -15 -1 -32 4 -18 6
-42 12 -53 15 -17 3 -82 20 -155 38 -8 2 -42 11 -75 20 -100 27 -249 67 -265
71 -8 2 -62 18 -120 35 -58 17 -134 39 -170 50 -36 10 -103 30 -150 45 -47 14
-89 28 -95 29 -5 2 -17 6 -25 9 -8 3 -40 13 -70 22 -30 9 -62 19 -70 22 -8 4
-18 7 -22 8 -5 2 -9 3 -10 4 -2 2 -13 4 -26 7 -13 2 -36 11 -53 19 -16 9 -29
12 -29 8 0 -4 -5 -2 -12 5 -7 7 -22 12 -33 12 -12 0 -25 3 -29 7 -3 4 -12 8
-19 9 -7 1 -35 11 -62 22 -111 45 -212 82 -223 82 -7 0 -12 4 -12 8 0 5 -6 9
-13 9 -7 0 -35 11 -62 25 -28 13 -53 25 -58 26 -4 1 -30 13 -59 27 -28 14 -53
25 -55 25 -2 0 -8 -11 -13 -26z"/>
</g>
</svg>
